<?xml version="1.0" encoding="UTF-8"?>
<svg version="1.1" xmlns="http://www.w3.org/2000/svg" width="512" height="512">
<path d="M0 0 C0.87329956 0.00182281 1.74659912 0.00364563 2.6463623 0.00552368 C16.03852759 0.05246384 29.10192228 0.55476941 42.25 3.3125 C43.06662109 3.47878906 43.88324219 3.64507812 44.72460938 3.81640625 C67.21523912 8.54206386 86.70854244 17.5952178 107.25 28.3125 C107.25 140.1825 107.25 252.0525 107.25 367.3125 C103.15557285 365.67472914 99.68884267 363.91001387 95.875 361.75 C30.13223209 326.01969518 -44.88833026 338.76612902 -113.26381493 358.92918968 C-122.53817925 361.67552537 -131.80028487 364.46302878 -141.0625 367.25 C-174.63295833 377.35124466 -208.13671494 387.40785102 -242.75 393.3125 C-243.76078613 393.48894043 -244.77157227 393.66538086 -245.81298828 393.84716797 C-272.66067958 398.34481375 -303.03514265 398.93408259 -329.75 393.3125 C-330.58257324 393.14089355 -331.41514648 392.96928711 -332.27294922 392.79248047 C-354.37651568 388.08753642 -375.16219728 379.50553012 -394.75 368.3125 C-394.75 256.4425 -394.75 144.5725 -394.75 29.3125 C-390.46171348 31.02781461 -386.41337931 32.96376517 -382.3125 35.0625 C-362.81436464 44.89527461 -343.17879662 51.26918327 -321.75 55.3125 C-321.03714844 55.44817383 -320.32429688 55.58384766 -319.58984375 55.72363281 C-264.61637883 65.57998637 -206.69861272 47.39995776 -154.64453125 31.796875 C-47.84499439 -0.20870289 -47.84499439 -0.20870289 0 0 Z " fill="#FEFEFE" transform="translate(399.75,57.6875)"/>
<path d="M0 0 C0 43.23 0 86.46 0 131 C9.57 128.36 19.14 125.72 29 123 C33.90458101 121.82851631 38.75457841 120.68706467 43.6875 119.6875 C44.84354736 119.44805664 45.99959473 119.20861328 47.19067383 118.96191406 C50.45771985 118.29313106 53.72762105 117.64210924 57 117 C57.845625 116.83129395 58.69125 116.66258789 59.5625 116.48876953 C111.0763458 106.38396321 167.27839058 110.47128229 213 138 C214 139 214 139 214.12025452 141.58790588 C214.11803391 142.74040329 214.11581329 143.8929007 214.11352539 145.08032227 C214.11344986 146.38159561 214.11337433 147.68286896 214.11329651 149.02357483 C214.10818909 150.45451902 214.10297308 151.88546282 214.09765625 153.31640625 C214.09579203 154.7722926 214.09436815 156.22817957 214.09336853 157.68406677 C214.08954365 161.52279379 214.07971364 165.36148319 214.06866455 169.20019531 C214.05844978 173.11457816 214.05387077 177.02896706 214.04882812 180.94335938 C214.03809134 188.62892343 214.02101529 196.31445645 214 204 C210.99615854 202.81060739 208.07562036 201.58862522 205.19921875 200.1171875 C187.11909163 191.07610877 167.94750241 184.45142391 148 181 C147.06269043 180.82484863 146.12538086 180.64969727 145.15966797 180.46923828 C133.93194394 178.58928628 122.73197801 178.60273869 111.375 178.625 C109.81197647 178.62581573 109.81197647 178.62581573 108.21737671 178.62664795 C91.46835875 178.66678843 75.45697338 179.68488992 59 183 C57.88318848 183.21430664 56.76637695 183.42861328 55.61572266 183.64941406 C37.14754655 187.21887165 19.199072 192.14691413 1 197 C0.67 240.56 0.34 284.12 0 329 C-4.29 330.32 -8.58 331.64 -13 333 C-16.31566018 334.06232808 -16.31566018 334.06232808 -19.62963867 335.12988281 C-34.59657971 339.94825554 -49.74742692 344.18685673 -65 348 C-65 304.77 -65 261.54 -65 217 C-79.52 220.63 -94.04 224.26 -109 228 C-133.49164963 232.66507612 -133.49164963 232.66507612 -141.4375 233.6875 C-142.35958252 233.80778564 -143.28166504 233.92807129 -144.23168945 234.05200195 C-166.24552841 236.85320167 -189.0325728 237.56639562 -211 234 C-211.77827148 233.87641113 -212.55654297 233.75282227 -213.35839844 233.62548828 C-236.54767337 229.8068951 -258.61066607 221.65104796 -279 210 C-279 188.55 -279 167.1 -279 145 C-275.94216271 145.76445932 -273.88420741 146.44208327 -271.15625 147.8203125 C-242.32693931 162.10019285 -212.80023696 169.44514795 -180.625 169.375 C-179.6838031 169.37445618 -178.7426062 169.37391235 -177.77288818 169.37335205 C-141.02144887 169.27634979 -105.70229527 161.92970147 -70.54248047 151.63916016 C-68 151 -68 151 -65 151 C-65 107.44 -65 63.88 -65 19 C-59.80162404 17.05060901 -54.75067509 15.26123048 -49.4375 13.75 C-42.37597933 11.70883527 -35.34103795 9.58939782 -28.3125 7.4375 C-3.93458479 0 -3.93458479 0 0 0 Z " fill="#EC302A" transform="translate(289,82)"/>
<path d="M0 0 C3.5011257 1.14875123 6.84790159 2.30379856 10.14453125 3.953125 C10.89492676 4.32219971 11.64532227 4.69127441 12.41845703 5.0715332 C13.20849121 5.46042725 13.99852539 5.84932129 14.8125 6.25 C29.10542385 13.12579399 43.49011892 17.78731777 59 21 C59.65531204 21.13783905 60.31062408 21.2756781 60.98579407 21.41769409 C74.41129415 24.16635517 87.63860206 24.59693504 101.3125 24.5625 C102.42406464 24.56268127 103.53562927 24.56286255 104.68087769 24.56304932 C125.30268591 24.51547117 144.87032024 22.31945074 165 18 C166.25603027 17.73848145 167.51206055 17.47696289 168.80615234 17.20751953 C180.28682263 14.79320889 191.66810538 12.0642697 202.84277344 8.47241211 C206.53886163 7.30346855 209.00113066 7 213 7 C213 50.23 213 93.46 213 138 C190.69611546 145.04333196 190.69611546 145.04333196 179.375 147.625 C178.10301758 147.91785889 176.83103516 148.21071777 175.52050781 148.51245117 C163.44136546 151.25198937 151.28083815 153.39759227 139 155 C138.36491516 155.08580322 137.72983032 155.17160645 137.07550049 155.26000977 C124.66350035 156.9105008 112.38939485 157.40115758 99.875 157.375 C98.93489075 157.37478851 97.99478149 157.37457703 97.02618408 157.37435913 C82.33632659 157.34146138 68.31425672 156.5807709 54 153 C52.87247314 152.72712158 52.87247314 152.72712158 51.72216797 152.44873047 C46.72682783 151.20517416 41.8600434 149.69301711 37 148 C35.75307373 147.5666333 35.75307373 147.5666333 34.48095703 147.12451172 C6.10386863 137.10386863 6.10386863 137.10386863 0 131 C-0.09619441 129.30441297 -0.12187659 127.6047916 -0.12025452 125.90647888 C-0.12162918 124.80285004 -0.12300385 123.69922119 -0.12442017 122.56214905 C-0.12082489 121.34079758 -0.11722961 120.11944611 -0.11352539 118.86108398 C-0.11367142 117.58322021 -0.11381744 116.30535645 -0.1139679 114.98876953 C-0.11425585 111.47446409 -0.1083594 107.9601925 -0.10139394 104.44589496 C-0.09516012 100.77700644 -0.09455658 97.10811723 -0.09336853 93.43922424 C-0.0902553 86.48709565 -0.08204202 79.5349827 -0.07201904 72.58286101 C-0.06085766 64.6700522 -0.05534739 56.75724266 -0.05032361 48.84442794 C-0.0398594 32.56294279 -0.02226011 16.28147339 0 0 Z " fill="#FEFEFE" transform="translate(10,95)"/>
<path d="M0 0 C0.87329956 0.00182281 1.74659912 0.00364563 2.6463623 0.00552368 C16.03852759 0.05246384 29.10192228 0.55476941 42.25 3.3125 C43.06662109 3.47878906 43.88324219 3.64507812 44.72460938 3.81640625 C67.21523912 8.54206386 86.70854244 17.5952178 107.25 28.3125 C107.25 140.1825 107.25 252.0525 107.25 367.3125 C103.15557285 365.67472914 99.68884267 363.91001387 95.875 361.75 C30.13223209 326.01969518 -44.88833026 338.76612902 -113.26381493 358.92918968 C-122.53817925 361.67552537 -131.80028487 364.46302878 -141.0625 367.25 C-174.63295833 377.35124466 -208.13671494 387.40785102 -242.75 393.3125 C-243.76078613 393.48894043 -244.77157227 393.66538086 -245.81298828 393.84716797 C-272.66067958 398.34481375 -303.03514265 398.93408259 -329.75 393.3125 C-330.58257324 393.14089355 -331.41514648 392.96928711 -332.27294922 392.79248047 C-354.37651568 388.08753642 -375.16219728 379.50553012 -394.75 368.3125 C-394.75 256.4425 -394.75 144.5725 -394.75 29.3125 C-390.46171348 31.02781461 -386.41337931 32.96376517 -382.3125 35.0625 C-362.81436464 44.89527461 -343.17879662 51.26918327 -321.75 55.3125 C-321.03714844 55.44817383 -320.32429688 55.58384766 -319.58984375 55.72363281 C-264.61637883 65.57998637 -206.69861272 47.39995776 -154.64453125 31.796875 C-47.84499439 -0.20870289 -47.84499439 -0.20870289 0 0 Z M-54.60839844 9.86035156 C-57.11169985 10.38886435 -59.62156351 10.87784721 -62.1328125 11.3671875 C-85.37361814 15.96138988 -108.05667084 22.56979156 -130.75 29.3125 C-131.63413574 29.57417969 -132.51827148 29.83585937 -133.42919922 30.10546875 C-145.57945981 33.7041928 -157.68598479 37.43413357 -169.75 41.3125 C-170.89726562 41.67859375 -172.04453125 42.0446875 -173.2265625 42.421875 C-175.65689591 43.07557741 -175.65689591 43.07557741 -176.75 44.3125 C-179.08304503 44.64784528 -181.41643983 44.9807584 -183.75 45.3125 C-186.27775739 45.91009943 -188.78091022 46.53414008 -191.2890625 47.203125 C-192.75754678 47.58526313 -194.22622366 47.96666172 -195.69506836 48.34741211 C-196.45850555 48.5460788 -197.22194275 48.74474548 -198.0085144 48.94943237 C-213.786599 53.0369421 -229.5060138 56.40232579 -245.63452148 58.82543945 C-247.62444055 59.13653486 -249.60963622 59.48084573 -251.58618164 59.86791992 C-263.05251873 61.99427291 -274.69180196 61.75419138 -286.3125 61.75 C-288.01933456 61.75060425 -288.01933456 61.75060425 -289.76065063 61.7512207 C-307.26382088 61.71547825 -323.79331671 61.01430371 -340.75 56.3125 C-341.76868164 56.03374023 -342.78736328 55.75498047 -343.83691406 55.46777344 C-358.56381713 51.28983015 -372.19044086 45.16201046 -385.79248047 38.1953125 C-387.69596504 37.17546285 -387.69596504 37.17546285 -389.75 37.3125 C-389.75 145.8825 -389.75 254.4525 -389.75 366.3125 C-366.90303818 377.31288903 -346.30176364 386.11004459 -321.75 390.3125 C-321.0885498 390.42964355 -320.42709961 390.54678711 -319.74560547 390.66748047 C-274.4097265 398.35869462 -223.91027135 387.80581209 -180.59008789 374.20214844 C-177.32600597 373.17968523 -174.04006134 372.24761024 -170.75 371.3125 C-167.12132149 370.22036632 -163.49845579 369.10931922 -159.875 368 C-150.8349341 365.24058182 -141.7815352 362.53468952 -132.70800781 359.88769531 C-130.20383984 359.15205694 -127.70550962 358.39721146 -125.20605469 357.64575195 C-121.39468582 356.50928662 -117.57223673 355.41174474 -113.75 354.3125 C-112.6475293 353.99265137 -111.54505859 353.67280273 -110.40917969 353.34326172 C-93.77157781 348.54792439 -77.09140215 344.34715127 -60.125 340.875 C-59.31319275 340.70769379 -58.5013855 340.54038757 -57.66497803 340.36801147 C-2.94530419 329.16161457 50.9291775 332.81379519 100.69726562 359.53735352 C102.10987402 360.3869418 102.10987402 360.3869418 103.25 360.3125 C103.47880542 318.50211826 103.65505398 276.69180865 103.76065329 234.88092505 C103.77316061 229.94665734 103.78610381 225.01239087 103.79931641 220.078125 C103.80193951 219.0957866 103.80456261 218.11344821 103.80726521 217.10134198 C103.85079835 201.18784893 103.92965467 185.27471652 104.02152796 169.36143754 C104.11498858 153.03727193 104.17057609 136.71329541 104.19088495 120.38887322 C104.20461792 110.31267075 104.24801501 100.23748752 104.32916467 90.16159876 C104.38195761 83.25550118 104.39801662 76.34993175 104.38501377 69.44364695 C104.37859734 65.45647962 104.38854232 61.47109497 104.44205475 57.48424339 C104.49069266 53.83394713 104.49320825 50.18663263 104.45898895 46.53619958 C104.45275587 44.58993279 104.49592567 42.6437017 104.54081309 40.69794261 C104.48211926 37.28434013 104.34403717 34.54775524 103.25 31.3125 C100.25129428 28.4239721 97.07574551 26.87488428 93.25 25.3125 C91.74932385 24.60560029 90.24920056 23.89752379 88.75 23.1875 C87.25422848 22.5524468 85.75407537 21.92762785 84.25 21.3125 C83.43966309 20.97710205 82.62932617 20.6417041 81.79443359 20.29614258 C69.30147905 15.20870564 56.53018679 10.79164688 43.25 8.3125 C42.39035645 8.14476074 41.53071289 7.97702148 40.64501953 7.80419922 C9.15364965 1.7900579 -23.29282319 3.12155689 -54.60839844 9.86035156 Z " fill="#CFCAC9" transform="translate(399.75,57.6875)"/>
<path d="M0 0 C0.67530762 0.00249756 1.35061523 0.00499512 2.04638672 0.00756836 C2.87928223 0.01667236 3.71217773 0.02577637 4.5703125 0.03515625 C8.5921875 0.06609375 8.5921875 0.06609375 12.6953125 0.09765625 C11.2103125 11.97765625 11.2103125 11.97765625 9.6953125 24.09765625 C17.6153125 24.09765625 25.5353125 24.09765625 33.6953125 24.09765625 C33.6953125 31.35765625 33.6953125 38.61765625 33.6953125 46.09765625 C25.8203125 44.97265625 25.8203125 44.97265625 22.29296875 44.34375 C21.54853516 44.21162109 20.80410156 44.07949219 20.03710938 43.94335938 C19.28494141 43.80865234 18.53277344 43.67394531 17.7578125 43.53515625 C16.58895508 43.32729492 16.58895508 43.32729492 15.39648438 43.11523438 C13.4959061 42.77709468 11.59558242 42.43752455 9.6953125 42.09765625 C9.8396875 43.32742187 9.9840625 44.5571875 10.1328125 45.82421875 C10.32048976 47.45701089 10.50797987 49.08982454 10.6953125 50.72265625 C10.79070312 51.53089844 10.88609375 52.33914062 10.984375 53.171875 C11.11972656 54.36103516 11.11972656 54.36103516 11.2578125 55.57421875 C11.34160156 56.29689941 11.42539062 57.01958008 11.51171875 57.76416016 C11.72965132 60.53410625 11.6953125 63.31915018 11.6953125 66.09765625 C4.4353125 66.09765625 -2.8246875 66.09765625 -10.3046875 66.09765625 C-9.75428573 58.07751618 -9.13353894 50.09327587 -8.3046875 42.09765625 C-9.28864502 42.32485352 -9.28864502 42.32485352 -10.29248047 42.55664062 C-13.25437055 43.23922476 -16.21701402 43.91848079 -19.1796875 44.59765625 C-20.21222656 44.83613281 -21.24476563 45.07460937 -22.30859375 45.3203125 C-23.29472656 45.54589844 -24.28085937 45.77148438 -25.296875 46.00390625 C-26.20808105 46.21337891 -27.11928711 46.42285156 -28.05810547 46.63867188 C-30.3046875 47.09765625 -30.3046875 47.09765625 -32.3046875 47.09765625 C-32.3046875 39.50765625 -32.3046875 31.91765625 -32.3046875 24.09765625 C-24.7146875 24.09765625 -17.1246875 24.09765625 -9.3046875 24.09765625 C-9.7996875 12.71265625 -9.7996875 12.71265625 -10.3046875 1.09765625 C-3.5546875 -0.02734375 -3.5546875 -0.02734375 0 0 Z " fill="#EC322D" transform="translate(395.3046875,94.90234375)"/>
<path d="M0 0 C7.59 0 15.18 0 23 0 C22.690625 3.42375 22.38125 6.8475 22.0625 10.375 C21.96718994 11.45313965 21.87187988 12.5312793 21.77368164 13.64208984 C21.65561157 14.91366943 21.65561157 14.91366943 21.53515625 16.2109375 C21.456604 17.08024902 21.37805176 17.94956055 21.29711914 18.84521484 C21 21 21 21 20 23 C20.58491211 22.87882812 21.16982422 22.75765625 21.77246094 22.6328125 C24.43082144 22.08447951 27.09037843 21.54218181 29.75 21 C30.67039063 20.80921875 31.59078125 20.6184375 32.5390625 20.421875 C33.42851562 20.24140625 34.31796875 20.0609375 35.234375 19.875 C36.05131836 19.70742188 36.86826172 19.53984375 37.70996094 19.3671875 C40 19 40 19 44 19 C44 26.26 44 33.52 44 41 C36.08 41 28.16 41 20 41 C20.99 48.92 21.98 56.84 23 65 C16.25 66.125 16.25 66.125 12.6953125 66.09765625 C11.94765625 66.09443359 11.2 66.09121094 10.4296875 66.08789062 C9.66914062 66.07951172 8.90859375 66.07113281 8.125 66.0625 C7.34125 66.05798828 6.5575 66.05347656 5.75 66.04882812 C3.83329986 66.03714093 1.91663952 66.01920908 0 66 C0.14477936 64.06242096 0.29089498 62.12494176 0.4375 60.1875 C0.51871094 59.10855469 0.59992188 58.02960938 0.68359375 56.91796875 C1.08542644 51.94218862 1.54804743 46.97147828 2 42 C-5.59 42 -13.18 42 -21 42 C-21 34.74 -21 27.48 -21 20 C-17.761875 20.474375 -14.52375 20.94875 -11.1875 21.4375 C-10.17067139 21.58501709 -9.15384277 21.73253418 -8.10620117 21.88452148 C-7.30158447 22.00384033 -6.49696777 22.12315918 -5.66796875 22.24609375 C-4.84578857 22.36654053 -4.0236084 22.4869873 -3.17651367 22.61108398 C-1 23 -1 23 2 24 C1.34 16.08 0.68 8.16 0 0 Z " fill="#EC322C" transform="translate(105,351)"/>
<path d="M0 0 C-0.30858158 3.06290797 -0.62256293 6.12523952 -0.9375 9.1875 C-1.02451172 10.05181641 -1.11152344 10.91613281 -1.20117188 11.80664062 C-1.6267231 15.9203025 -2.07203814 19.96211191 -3 24 C-2.41508789 23.87882812 -1.83017578 23.75765625 -1.22753906 23.6328125 C1.43082144 23.08447951 4.09037843 22.54218181 6.75 22 C7.67039063 21.80921875 8.59078125 21.6184375 9.5390625 21.421875 C10.42851562 21.24140625 11.31796875 21.0609375 12.234375 20.875 C13.05131836 20.70742187 13.86826172 20.53984375 14.70996094 20.3671875 C17 20 17 20 21 20 C21 27.26 21 34.52 21 42 C13.08 42 5.16 42 -3 42 C-2.01597629 48.40236282 -2.01597629 48.40236282 -1.02539062 54.80371094 C-0.90357422 55.60583008 -0.78175781 56.40794922 -0.65625 57.234375 C-0.53056641 58.05131836 -0.40488281 58.86826172 -0.27539062 59.70996094 C0 62 0 62 0 66 C-7.59 66 -15.18 66 -23 66 C-22.67 62.37 -22.34 58.74 -22 55 C-21.80655611 52.60463926 -21.61787272 50.20888046 -21.4375 47.8125 C-21.35371094 46.70519531 -21.26992187 45.59789062 -21.18359375 44.45703125 C-21.09271484 43.24080078 -21.09271484 43.24080078 -21 42 C-21.5662207 42.16298584 -22.13244141 42.32597168 -22.71582031 42.49389648 C-25.07601117 43.01684172 -27.13282157 43.11396742 -29.546875 43.09765625 C-30.30838867 43.09515869 -31.06990234 43.09266113 -31.85449219 43.09008789 C-32.81000977 43.08098389 -33.76552734 43.07187988 -34.75 43.0625 C-39.32875 43.0315625 -39.32875 43.0315625 -44 43 C-44 35.74 -44 28.48 -44 21 C-38.20624107 21.57937589 -32.59505672 22.14972499 -26.875 23.0625 C-24.93625 23.371875 -22.9975 23.68125 -21 24 C-21.66 16.41 -22.32 8.82 -23 1 C-20.69 0.835 -18.38 0.67 -16 0.5 C-14.0509375 0.36078125 -14.0509375 0.36078125 -12.0625 0.21875 C-8.03604976 -0.03339561 -4.03357044 -0.03601402 0 0 Z " fill="#EC312B" transform="translate(128,153)"/>
<path d="M0 0 C7.26 0 14.52 0 22 0 C21.47623021 7.70689829 20.85363305 15.31730254 20 23 C27.92 23 35.84 23 44 23 C44 30.26 44 37.52 44 45 C38.12522369 44.34724708 32.67646548 43.62665501 26.9375 42.4375 C26.26267578 42.29892578 25.58785156 42.16035156 24.89257812 42.01757812 C23.26097127 41.68199941 21.63036945 41.34153984 20 41 C20.144375 42.22976563 20.28875 43.45953125 20.4375 44.7265625 C20.62517726 46.35935464 20.81266737 47.99216829 21 49.625 C21.09539062 50.43324219 21.19078125 51.24148438 21.2890625 52.07421875 C21.42441406 53.26337891 21.42441406 53.26337891 21.5625 54.4765625 C21.64628906 55.19924316 21.73007812 55.92192383 21.81640625 56.66650391 C22.03433882 59.43645 22 62.22149393 22 65 C14.74 65 7.48 65 0 65 C0.52273981 57.30825703 1.07626293 49.65382146 2 42 C0.9378125 42.20496094 -0.124375 42.40992188 -1.21875 42.62109375 C-2.64580811 42.89336142 -4.07289288 43.16548933 -5.5 43.4375 C-6.19609375 43.57220703 -6.8921875 43.70691406 -7.609375 43.84570312 C-8.30546875 43.97783203 -9.0015625 44.10996094 -9.71875 44.24609375 C-10.34716797 44.36654053 -10.97558594 44.4869873 -11.62304688 44.61108398 C-15.06708099 45.17459532 -18.53711853 45.56713982 -22 46 C-22 38.74 -22 31.48 -22 24 C-14.08 24 -6.16 24 2 24 C1.505 20.5659375 1.505 20.5659375 1 17.0625 C0.15240273 11.18229396 0 6.05283771 0 0 Z " fill="#EC312B" transform="translate(385,293)"/>
</svg>
